<mxfile host="65bd71144e">
    <diagram id="wC8KqXOWJu4OyTHB78vj" name="Login">
        <mxGraphModel dx="676" dy="591" grid="1" gridSize="10" guides="1" tooltips="1" connect="1" arrows="1" fold="1" page="1" pageScale="1" pageWidth="850" pageHeight="1100" math="0" shadow="0">
            <root>
                <mxCell id="0"/>
                <mxCell id="1" parent="0"/>
                <mxCell id="2" value="Login" style="shape=umlFrame;whiteSpace=wrap;html=1;" parent="1" vertex="1">
                    <mxGeometry x="95" y="150" width="625" height="380" as="geometry"/>
                </mxCell>
                <mxCell id="5" value="Mobile" style="shape=umlLifeline;perimeter=lifelinePerimeter;whiteSpace=wrap;html=1;container=1;collapsible=0;recursiveResize=0;outlineConnect=0;" parent="1" vertex="1">
                    <mxGeometry x="180" y="200" width="100" height="300" as="geometry"/>
                </mxCell>
                <mxCell id="6" value="" style="html=1;points=[];perimeter=orthogonalPerimeter;" parent="5" vertex="1">
                    <mxGeometry x="45" y="70" width="10" height="200" as="geometry"/>
                </mxCell>
                <mxCell id="7" value="API" style="shape=umlLifeline;perimeter=lifelinePerimeter;whiteSpace=wrap;html=1;container=1;collapsible=0;recursiveResize=0;outlineConnect=0;" parent="1" vertex="1">
                    <mxGeometry x="380" y="200" width="100" height="300" as="geometry"/>
                </mxCell>
                <mxCell id="8" value="" style="html=1;points=[];perimeter=orthogonalPerimeter;" parent="7" vertex="1">
                    <mxGeometry x="45" y="70" width="10" height="200" as="geometry"/>
                </mxCell>
                <mxCell id="18" value="Generate access token" style="edgeStyle=orthogonalEdgeStyle;html=1;align=left;spacingLeft=2;endArrow=block;rounded=0;entryX=1.027;entryY=0.802;exitX=1.042;exitY=0.7;exitDx=0;exitDy=0;exitPerimeter=0;entryDx=0;entryDy=0;entryPerimeter=0;" parent="7" source="8" target="8" edge="1">
                    <mxGeometry relative="1" as="geometry">
                        <mxPoint x="55" y="210" as="sourcePoint"/>
                        <Array as="points">
                            <mxPoint x="85" y="210"/>
                            <mxPoint x="85" y="230"/>
                        </Array>
                        <mxPoint x="60" y="230" as="targetPoint"/>
                    </mxGeometry>
                </mxCell>
                <mxCell id="9" value="Database" style="shape=umlLifeline;perimeter=lifelinePerimeter;whiteSpace=wrap;html=1;container=1;collapsible=0;recursiveResize=0;outlineConnect=0;" parent="1" vertex="1">
                    <mxGeometry x="580" y="200" width="100" height="300" as="geometry"/>
                </mxCell>
                <mxCell id="10" value="" style="html=1;points=[];perimeter=orthogonalPerimeter;" parent="9" vertex="1">
                    <mxGeometry x="45" y="70" width="10" height="140" as="geometry"/>
                </mxCell>
                <mxCell id="11" value="Klik tombol login" style="html=1;verticalAlign=bottom;startArrow=oval;startFill=1;endArrow=block;startSize=8;entryX=0.052;entryY=0.099;entryDx=0;entryDy=0;entryPerimeter=0;" parent="1" target="6" edge="1">
                    <mxGeometry x="-0.9991" y="10" width="60" relative="1" as="geometry">
                        <mxPoint x="160" y="290" as="sourcePoint"/>
                        <mxPoint x="220" y="290" as="targetPoint"/>
                        <mxPoint as="offset"/>
                    </mxGeometry>
                </mxCell>
                <mxCell id="12" value="" style="edgeStyle=elbowEdgeStyle;fontSize=12;html=1;endArrow=blockThin;endFill=1;exitX=0.967;exitY=0.25;exitDx=0;exitDy=0;exitPerimeter=0;entryX=-0.035;entryY=0.251;entryDx=0;entryDy=0;entryPerimeter=0;" parent="1" source="6" target="8" edge="1">
                    <mxGeometry width="160" relative="1" as="geometry">
                        <mxPoint x="300" y="320" as="sourcePoint"/>
                        <mxPoint x="420" y="320" as="targetPoint"/>
                    </mxGeometry>
                </mxCell>
                <mxCell id="13" value="Mengirim data user" style="edgeLabel;html=1;align=center;verticalAlign=middle;resizable=0;points=[];" parent="12" vertex="1" connectable="0">
                    <mxGeometry x="-0.1156" relative="1" as="geometry">
                        <mxPoint y="-10" as="offset"/>
                    </mxGeometry>
                </mxCell>
                <mxCell id="14" value="" style="edgeStyle=elbowEdgeStyle;fontSize=12;html=1;endArrow=blockThin;endFill=1;exitX=1.021;exitY=0.351;exitDx=0;exitDy=0;exitPerimeter=0;entryX=-0.113;entryY=0.503;entryDx=0;entryDy=0;entryPerimeter=0;" parent="1" source="8" target="10" edge="1">
                    <mxGeometry width="160" relative="1" as="geometry">
                        <mxPoint x="440" y="340" as="sourcePoint"/>
                        <mxPoint x="620" y="340" as="targetPoint"/>
                    </mxGeometry>
                </mxCell>
                <mxCell id="15" value="Pengecekan data user" style="edgeLabel;html=1;align=center;verticalAlign=middle;resizable=0;points=[];" parent="14" vertex="1" connectable="0">
                    <mxGeometry x="-0.1156" relative="1" as="geometry">
                        <mxPoint y="-10" as="offset"/>
                    </mxGeometry>
                </mxCell>
                <mxCell id="16" value="return data" style="html=1;verticalAlign=bottom;endArrow=open;dashed=1;endSize=8;exitX=-0.113;exitY=0.865;exitDx=0;exitDy=0;exitPerimeter=0;entryX=0.967;entryY=0.604;entryDx=0;entryDy=0;entryPerimeter=0;" parent="1" source="10" target="8" edge="1">
                    <mxGeometry relative="1" as="geometry">
                        <mxPoint x="560" y="390" as="sourcePoint"/>
                        <mxPoint x="480" y="390" as="targetPoint"/>
                    </mxGeometry>
                </mxCell>
                <mxCell id="19" value="return response" style="html=1;verticalAlign=bottom;endArrow=open;dashed=1;endSize=8;exitX=-0.004;exitY=0.898;exitDx=0;exitDy=0;exitPerimeter=0;entryX=0.981;entryY=0.902;entryDx=0;entryDy=0;entryPerimeter=0;" parent="1" source="8" target="6" edge="1">
                    <mxGeometry relative="1" as="geometry">
                        <mxPoint x="425.4300000000002" y="450.0000000000001" as="sourcePoint"/>
                        <mxPoint x="238.00000000000009" y="450.4000000000001" as="targetPoint"/>
                    </mxGeometry>
                </mxCell>
            </root>
        </mxGraphModel>
    </diagram>
    <diagram id="lRpLIYa7BAUwka9PPitv" name="Register">
        <mxGraphModel dx="676" dy="591" grid="1" gridSize="10" guides="1" tooltips="1" connect="1" arrows="1" fold="1" page="1" pageScale="1" pageWidth="850" pageHeight="1100" math="0" shadow="0">
            <root>
                <mxCell id="0"/>
                <mxCell id="1" parent="0"/>
                <mxCell id="2CNAh6zjdDJa04eRuenq-1" value="Register" style="shape=umlFrame;whiteSpace=wrap;html=1;" parent="1" vertex="1">
                    <mxGeometry x="105" y="160" width="625" height="380" as="geometry"/>
                </mxCell>
                <mxCell id="2CNAh6zjdDJa04eRuenq-2" value="Mobile" style="shape=umlLifeline;perimeter=lifelinePerimeter;whiteSpace=wrap;html=1;container=1;collapsible=0;recursiveResize=0;outlineConnect=0;" parent="1" vertex="1">
                    <mxGeometry x="190" y="210" width="100" height="300" as="geometry"/>
                </mxCell>
                <mxCell id="2CNAh6zjdDJa04eRuenq-3" value="" style="html=1;points=[];perimeter=orthogonalPerimeter;" parent="2CNAh6zjdDJa04eRuenq-2" vertex="1">
                    <mxGeometry x="45" y="70" width="10" height="200" as="geometry"/>
                </mxCell>
                <mxCell id="2CNAh6zjdDJa04eRuenq-4" value="API" style="shape=umlLifeline;perimeter=lifelinePerimeter;whiteSpace=wrap;html=1;container=1;collapsible=0;recursiveResize=0;outlineConnect=0;" parent="1" vertex="1">
                    <mxGeometry x="390" y="210" width="100" height="300" as="geometry"/>
                </mxCell>
                <mxCell id="2CNAh6zjdDJa04eRuenq-5" value="" style="html=1;points=[];perimeter=orthogonalPerimeter;" parent="2CNAh6zjdDJa04eRuenq-4" vertex="1">
                    <mxGeometry x="45" y="70" width="10" height="200" as="geometry"/>
                </mxCell>
                <mxCell id="2CNAh6zjdDJa04eRuenq-7" value="Database" style="shape=umlLifeline;perimeter=lifelinePerimeter;whiteSpace=wrap;html=1;container=1;collapsible=0;recursiveResize=0;outlineConnect=0;" parent="1" vertex="1">
                    <mxGeometry x="590" y="210" width="100" height="300" as="geometry"/>
                </mxCell>
                <mxCell id="2CNAh6zjdDJa04eRuenq-8" value="" style="html=1;points=[];perimeter=orthogonalPerimeter;" parent="2CNAh6zjdDJa04eRuenq-7" vertex="1">
                    <mxGeometry x="45" y="70" width="10" height="140" as="geometry"/>
                </mxCell>
                <mxCell id="2CNAh6zjdDJa04eRuenq-18" value="" style="edgeStyle=elbowEdgeStyle;fontSize=12;html=1;endArrow=blockThin;endFill=1;entryX=1.02;entryY=0.676;entryDx=0;entryDy=0;entryPerimeter=0;rounded=0;" parent="2CNAh6zjdDJa04eRuenq-7" edge="1">
                    <mxGeometry width="160" relative="1" as="geometry">
                        <mxPoint x="55" y="154.82999999999998" as="sourcePoint"/>
                        <mxPoint x="55.19999999999993" y="169.64" as="targetPoint"/>
                        <Array as="points">
                            <mxPoint x="70" y="165"/>
                        </Array>
                    </mxGeometry>
                </mxCell>
                <mxCell id="2CNAh6zjdDJa04eRuenq-9" value="Klik tombol register" style="html=1;verticalAlign=bottom;startArrow=oval;startFill=1;endArrow=block;startSize=8;entryX=0.052;entryY=0.099;entryDx=0;entryDy=0;entryPerimeter=0;" parent="1" target="2CNAh6zjdDJa04eRuenq-3" edge="1">
                    <mxGeometry x="-0.9991" y="10" width="60" relative="1" as="geometry">
                        <mxPoint x="170" y="300" as="sourcePoint"/>
                        <mxPoint x="230" y="300" as="targetPoint"/>
                        <mxPoint as="offset"/>
                    </mxGeometry>
                </mxCell>
                <mxCell id="2CNAh6zjdDJa04eRuenq-10" value="" style="edgeStyle=elbowEdgeStyle;fontSize=12;html=1;endArrow=blockThin;endFill=1;exitX=0.967;exitY=0.25;exitDx=0;exitDy=0;exitPerimeter=0;entryX=-0.035;entryY=0.251;entryDx=0;entryDy=0;entryPerimeter=0;" parent="1" source="2CNAh6zjdDJa04eRuenq-3" target="2CNAh6zjdDJa04eRuenq-5" edge="1">
                    <mxGeometry width="160" relative="1" as="geometry">
                        <mxPoint x="310" y="330" as="sourcePoint"/>
                        <mxPoint x="430" y="330" as="targetPoint"/>
                    </mxGeometry>
                </mxCell>
                <mxCell id="2CNAh6zjdDJa04eRuenq-11" value="Mengirim data registrasi" style="edgeLabel;html=1;align=center;verticalAlign=middle;resizable=0;points=[];" parent="2CNAh6zjdDJa04eRuenq-10" vertex="1" connectable="0">
                    <mxGeometry x="-0.1156" relative="1" as="geometry">
                        <mxPoint y="-10" as="offset"/>
                    </mxGeometry>
                </mxCell>
                <mxCell id="2CNAh6zjdDJa04eRuenq-12" value="" style="edgeStyle=elbowEdgeStyle;fontSize=12;html=1;endArrow=blockThin;endFill=1;exitX=1.021;exitY=0.351;exitDx=0;exitDy=0;exitPerimeter=0;entryX=-0.113;entryY=0.503;entryDx=0;entryDy=0;entryPerimeter=0;" parent="1" source="2CNAh6zjdDJa04eRuenq-5" target="2CNAh6zjdDJa04eRuenq-8" edge="1">
                    <mxGeometry width="160" relative="1" as="geometry">
                        <mxPoint x="450" y="350" as="sourcePoint"/>
                        <mxPoint x="630" y="350" as="targetPoint"/>
                    </mxGeometry>
                </mxCell>
                <mxCell id="2CNAh6zjdDJa04eRuenq-13" value="Input data user" style="edgeLabel;html=1;align=center;verticalAlign=middle;resizable=0;points=[];" parent="2CNAh6zjdDJa04eRuenq-12" vertex="1" connectable="0">
                    <mxGeometry x="-0.1156" relative="1" as="geometry">
                        <mxPoint y="-10" as="offset"/>
                    </mxGeometry>
                </mxCell>
                <mxCell id="2CNAh6zjdDJa04eRuenq-14" value="return data" style="html=1;verticalAlign=bottom;endArrow=open;dashed=1;endSize=8;exitX=-0.113;exitY=0.865;exitDx=0;exitDy=0;exitPerimeter=0;entryX=0.967;entryY=0.604;entryDx=0;entryDy=0;entryPerimeter=0;" parent="1" source="2CNAh6zjdDJa04eRuenq-8" target="2CNAh6zjdDJa04eRuenq-5" edge="1">
                    <mxGeometry relative="1" as="geometry">
                        <mxPoint x="570" y="400" as="sourcePoint"/>
                        <mxPoint x="490" y="400" as="targetPoint"/>
                    </mxGeometry>
                </mxCell>
                <mxCell id="2CNAh6zjdDJa04eRuenq-15" value="return response" style="html=1;verticalAlign=bottom;endArrow=open;dashed=1;endSize=8;exitX=-0.004;exitY=0.898;exitDx=0;exitDy=0;exitPerimeter=0;entryX=0.981;entryY=0.902;entryDx=0;entryDy=0;entryPerimeter=0;" parent="1" edge="1">
                    <mxGeometry relative="1" as="geometry">
                        <mxPoint x="434.96000000000004" y="427.5999999999999" as="sourcePoint"/>
                        <mxPoint x="244.80999999999995" y="428.4000000000001" as="targetPoint"/>
                    </mxGeometry>
                </mxCell>
            </root>
        </mxGraphModel>
    </diagram>
    <diagram id="pBPvwf53O15mz0z8WCX-" name="Top-Up">
        <mxGraphModel dx="1059" dy="806" grid="1" gridSize="10" guides="1" tooltips="1" connect="1" arrows="1" fold="1" page="1" pageScale="1" pageWidth="850" pageHeight="1100" math="0" shadow="0">
            <root>
                <mxCell id="0"/>
                <mxCell id="1" parent="0"/>
                <mxCell id="4F1yxkvqB-vSbQOd9QjT-1" value="Top-Up" style="shape=umlFrame;whiteSpace=wrap;html=1;" parent="1" vertex="1">
                    <mxGeometry x="105" y="160" width="855" height="420" as="geometry"/>
                </mxCell>
                <mxCell id="4F1yxkvqB-vSbQOd9QjT-2" value="Mobile" style="shape=umlLifeline;perimeter=lifelinePerimeter;whiteSpace=wrap;html=1;container=1;collapsible=0;recursiveResize=0;outlineConnect=0;" parent="1" vertex="1">
                    <mxGeometry x="190" y="210" width="100" height="340" as="geometry"/>
                </mxCell>
                <mxCell id="4F1yxkvqB-vSbQOd9QjT-3" value="" style="html=1;points=[];perimeter=orthogonalPerimeter;" parent="4F1yxkvqB-vSbQOd9QjT-2" vertex="1">
                    <mxGeometry x="45" y="70" width="10" height="240" as="geometry"/>
                </mxCell>
                <mxCell id="4F1yxkvqB-vSbQOd9QjT-4" value="API" style="shape=umlLifeline;perimeter=lifelinePerimeter;whiteSpace=wrap;html=1;container=1;collapsible=0;recursiveResize=0;outlineConnect=0;" parent="1" vertex="1">
                    <mxGeometry x="390" y="210" width="100" height="340" as="geometry"/>
                </mxCell>
                <mxCell id="4F1yxkvqB-vSbQOd9QjT-5" value="" style="html=1;points=[];perimeter=orthogonalPerimeter;" parent="4F1yxkvqB-vSbQOd9QjT-4" vertex="1">
                    <mxGeometry x="45" y="70" width="10" height="240" as="geometry"/>
                </mxCell>
                <mxCell id="4F1yxkvqB-vSbQOd9QjT-7" value="Midtrans" style="shape=umlLifeline;perimeter=lifelinePerimeter;whiteSpace=wrap;html=1;container=1;collapsible=0;recursiveResize=0;outlineConnect=0;" parent="1" vertex="1">
                    <mxGeometry x="590" y="210" width="100" height="340" as="geometry"/>
                </mxCell>
                <mxCell id="4F1yxkvqB-vSbQOd9QjT-8" value="" style="html=1;points=[];perimeter=orthogonalPerimeter;" parent="4F1yxkvqB-vSbQOd9QjT-7" vertex="1">
                    <mxGeometry x="45" y="70" width="10" height="240" as="geometry"/>
                </mxCell>
                <mxCell id="4F1yxkvqB-vSbQOd9QjT-9" value="" style="edgeStyle=elbowEdgeStyle;fontSize=12;html=1;endArrow=blockThin;endFill=1;entryX=1.02;entryY=0.676;entryDx=0;entryDy=0;entryPerimeter=0;rounded=0;" parent="4F1yxkvqB-vSbQOd9QjT-7" edge="1">
                    <mxGeometry width="160" relative="1" as="geometry">
                        <mxPoint x="55" y="168.82999999999998" as="sourcePoint"/>
                        <mxPoint x="55.19999999999993" y="183.64" as="targetPoint"/>
                        <Array as="points">
                            <mxPoint x="70" y="179"/>
                        </Array>
                    </mxGeometry>
                </mxCell>
                <mxCell id="4F1yxkvqB-vSbQOd9QjT-20" value="Charge" style="edgeLabel;html=1;align=center;verticalAlign=middle;resizable=0;points=[];" parent="4F1yxkvqB-vSbQOd9QjT-9" vertex="1" connectable="0">
                    <mxGeometry x="-0.1174" relative="1" as="geometry">
                        <mxPoint x="20" as="offset"/>
                    </mxGeometry>
                </mxCell>
                <mxCell id="4F1yxkvqB-vSbQOd9QjT-10" value="Klik tombol top-up" style="html=1;verticalAlign=bottom;startArrow=oval;startFill=1;endArrow=block;startSize=8;entryX=0.052;entryY=0.099;entryDx=0;entryDy=0;entryPerimeter=0;" parent="1" target="4F1yxkvqB-vSbQOd9QjT-3" edge="1">
                    <mxGeometry x="-0.9991" y="10" width="60" relative="1" as="geometry">
                        <mxPoint x="170" y="304" as="sourcePoint"/>
                        <mxPoint x="230" y="300" as="targetPoint"/>
                        <mxPoint as="offset"/>
                    </mxGeometry>
                </mxCell>
                <mxCell id="4F1yxkvqB-vSbQOd9QjT-11" value="" style="edgeStyle=elbowEdgeStyle;fontSize=12;html=1;endArrow=blockThin;endFill=1;exitX=0.967;exitY=0.25;exitDx=0;exitDy=0;exitPerimeter=0;entryX=-0.035;entryY=0.251;entryDx=0;entryDy=0;entryPerimeter=0;" parent="1" source="4F1yxkvqB-vSbQOd9QjT-3" target="4F1yxkvqB-vSbQOd9QjT-5" edge="1">
                    <mxGeometry width="160" relative="1" as="geometry">
                        <mxPoint x="310" y="330" as="sourcePoint"/>
                        <mxPoint x="430" y="330" as="targetPoint"/>
                    </mxGeometry>
                </mxCell>
                <mxCell id="4F1yxkvqB-vSbQOd9QjT-12" value="Mengirim data top-up" style="edgeLabel;html=1;align=center;verticalAlign=middle;resizable=0;points=[];" parent="4F1yxkvqB-vSbQOd9QjT-11" vertex="1" connectable="0">
                    <mxGeometry x="-0.1156" relative="1" as="geometry">
                        <mxPoint y="-10" as="offset"/>
                    </mxGeometry>
                </mxCell>
                <mxCell id="4F1yxkvqB-vSbQOd9QjT-13" value="" style="edgeStyle=elbowEdgeStyle;fontSize=12;html=1;endArrow=blockThin;endFill=1;exitX=1.021;exitY=0.351;exitDx=0;exitDy=0;exitPerimeter=0;entryX=0.004;entryY=0.352;entryDx=0;entryDy=0;entryPerimeter=0;rounded=0;" parent="1" source="4F1yxkvqB-vSbQOd9QjT-5" target="4F1yxkvqB-vSbQOd9QjT-8" edge="1">
                    <mxGeometry width="160" relative="1" as="geometry">
                        <mxPoint x="450" y="350" as="sourcePoint"/>
                        <mxPoint x="630" y="350" as="targetPoint"/>
                    </mxGeometry>
                </mxCell>
                <mxCell id="4F1yxkvqB-vSbQOd9QjT-14" value="Request Charge" style="edgeLabel;html=1;align=center;verticalAlign=middle;resizable=0;points=[];" parent="4F1yxkvqB-vSbQOd9QjT-13" vertex="1" connectable="0">
                    <mxGeometry x="-0.1156" relative="1" as="geometry">
                        <mxPoint y="-10" as="offset"/>
                    </mxGeometry>
                </mxCell>
                <mxCell id="4F1yxkvqB-vSbQOd9QjT-16" value="return response" style="html=1;verticalAlign=bottom;endArrow=open;dashed=1;endSize=8;exitX=-0.004;exitY=0.898;exitDx=0;exitDy=0;exitPerimeter=0;entryX=0.981;entryY=0.902;entryDx=0;entryDy=0;entryPerimeter=0;" parent="1" edge="1">
                    <mxGeometry relative="1" as="geometry">
                        <mxPoint x="434.9599999999999" y="508.52" as="sourcePoint"/>
                        <mxPoint x="244.81000000000006" y="509.48" as="targetPoint"/>
                    </mxGeometry>
                </mxCell>
                <mxCell id="4F1yxkvqB-vSbQOd9QjT-17" value="Database" style="shape=umlLifeline;perimeter=lifelinePerimeter;whiteSpace=wrap;html=1;container=1;collapsible=0;recursiveResize=0;outlineConnect=0;" parent="1" vertex="1">
                    <mxGeometry x="790" y="210" width="100" height="340" as="geometry"/>
                </mxCell>
                <mxCell id="4F1yxkvqB-vSbQOd9QjT-18" value="" style="html=1;points=[];perimeter=orthogonalPerimeter;" parent="4F1yxkvqB-vSbQOd9QjT-17" vertex="1">
                    <mxGeometry x="45" y="70" width="10" height="240" as="geometry"/>
                </mxCell>
                <mxCell id="4F1yxkvqB-vSbQOd9QjT-19" value="" style="edgeStyle=elbowEdgeStyle;fontSize=12;html=1;endArrow=blockThin;endFill=1;entryX=1.02;entryY=0.676;entryDx=0;entryDy=0;entryPerimeter=0;rounded=0;" parent="4F1yxkvqB-vSbQOd9QjT-17" edge="1">
                    <mxGeometry width="160" relative="1" as="geometry">
                        <mxPoint x="55" y="227.82999999999998" as="sourcePoint"/>
                        <mxPoint x="55.19999999999993" y="242.64" as="targetPoint"/>
                        <Array as="points">
                            <mxPoint x="70" y="238"/>
                        </Array>
                    </mxGeometry>
                </mxCell>
                <mxCell id="liDXDFMVHWf2jux0t-jK-1" value="Save Response" style="edgeLabel;html=1;align=center;verticalAlign=middle;resizable=0;points=[];" parent="4F1yxkvqB-vSbQOd9QjT-19" vertex="1" connectable="0">
                    <mxGeometry x="-0.1302" relative="1" as="geometry">
                        <mxPoint x="43" as="offset"/>
                    </mxGeometry>
                </mxCell>
                <mxCell id="4F1yxkvqB-vSbQOd9QjT-21" value="" style="edgeStyle=elbowEdgeStyle;fontSize=12;html=1;endArrow=blockThin;endFill=1;entryX=-0.01;entryY=0.651;entryDx=0;entryDy=0;entryPerimeter=0;rounded=0;exitX=1.023;exitY=0.649;exitDx=0;exitDy=0;exitPerimeter=0;" parent="1" edge="1">
                    <mxGeometry width="160" relative="1" as="geometry">
                        <mxPoint x="645.2299999999999" y="418.76" as="sourcePoint"/>
                        <mxPoint x="834.9000000000001" y="419.24" as="targetPoint"/>
                    </mxGeometry>
                </mxCell>
                <mxCell id="4F1yxkvqB-vSbQOd9QjT-22" value="Return Response" style="edgeLabel;html=1;align=center;verticalAlign=middle;resizable=0;points=[];" parent="4F1yxkvqB-vSbQOd9QjT-21" vertex="1" connectable="0">
                    <mxGeometry x="-0.1156" relative="1" as="geometry">
                        <mxPoint y="-10" as="offset"/>
                    </mxGeometry>
                </mxCell>
                <mxCell id="WyQ7dSe0GNRpm17zvr1w-1" value="return response" style="html=1;verticalAlign=bottom;endArrow=open;dashed=1;endSize=8;exitX=-0.004;exitY=0.898;exitDx=0;exitDy=0;exitPerimeter=0;entryX=0.981;entryY=0.902;entryDx=0;entryDy=0;entryPerimeter=0;" parent="1" edge="1">
                    <mxGeometry relative="1" as="geometry">
                        <mxPoint x="835.1499999999999" y="472" as="sourcePoint"/>
                        <mxPoint x="645" y="472.96000000000004" as="targetPoint"/>
                    </mxGeometry>
                </mxCell>
                <mxCell id="WyQ7dSe0GNRpm17zvr1w-2" value="return response" style="html=1;verticalAlign=bottom;endArrow=open;dashed=1;endSize=8;exitX=-0.004;exitY=0.898;exitDx=0;exitDy=0;exitPerimeter=0;entryX=0.981;entryY=0.902;entryDx=0;entryDy=0;entryPerimeter=0;" parent="1" edge="1">
                    <mxGeometry relative="1" as="geometry">
                        <mxPoint x="634.1499999999999" y="490" as="sourcePoint"/>
                        <mxPoint x="444" y="490.96000000000004" as="targetPoint"/>
                    </mxGeometry>
                </mxCell>
            </root>
        </mxGraphModel>
    </diagram>
    <diagram id="2-ZRt6Zlzl0KSGFyBfOy" name="Cek Status Top-Up">
        <mxGraphModel dx="1059" dy="806" grid="1" gridSize="10" guides="1" tooltips="1" connect="1" arrows="1" fold="1" page="1" pageScale="1" pageWidth="850" pageHeight="1100" math="0" shadow="0">
            <root>
                <mxCell id="0"/>
                <mxCell id="1" parent="0"/>
                <mxCell id="1i8XbxQdBWijU6mkeHzm-1" value="Top-Up Status" style="shape=umlFrame;whiteSpace=wrap;html=1;" parent="1" vertex="1">
                    <mxGeometry x="105" y="160" width="855" height="420" as="geometry"/>
                </mxCell>
                <mxCell id="1i8XbxQdBWijU6mkeHzm-2" value="Mobile" style="shape=umlLifeline;perimeter=lifelinePerimeter;whiteSpace=wrap;html=1;container=1;collapsible=0;recursiveResize=0;outlineConnect=0;" parent="1" vertex="1">
                    <mxGeometry x="190" y="210" width="100" height="340" as="geometry"/>
                </mxCell>
                <mxCell id="1i8XbxQdBWijU6mkeHzm-3" value="" style="html=1;points=[];perimeter=orthogonalPerimeter;" parent="1i8XbxQdBWijU6mkeHzm-2" vertex="1">
                    <mxGeometry x="45" y="70" width="10" height="240" as="geometry"/>
                </mxCell>
                <mxCell id="1i8XbxQdBWijU6mkeHzm-4" value="API" style="shape=umlLifeline;perimeter=lifelinePerimeter;whiteSpace=wrap;html=1;container=1;collapsible=0;recursiveResize=0;outlineConnect=0;" parent="1" vertex="1">
                    <mxGeometry x="390" y="210" width="100" height="340" as="geometry"/>
                </mxCell>
                <mxCell id="1i8XbxQdBWijU6mkeHzm-5" value="" style="html=1;points=[];perimeter=orthogonalPerimeter;" parent="1i8XbxQdBWijU6mkeHzm-4" vertex="1">
                    <mxGeometry x="45" y="70" width="10" height="240" as="geometry"/>
                </mxCell>
                <mxCell id="1i8XbxQdBWijU6mkeHzm-6" value="Midtrans" style="shape=umlLifeline;perimeter=lifelinePerimeter;whiteSpace=wrap;html=1;container=1;collapsible=0;recursiveResize=0;outlineConnect=0;" parent="1" vertex="1">
                    <mxGeometry x="590" y="210" width="100" height="340" as="geometry"/>
                </mxCell>
                <mxCell id="1i8XbxQdBWijU6mkeHzm-7" value="" style="html=1;points=[];perimeter=orthogonalPerimeter;" parent="1i8XbxQdBWijU6mkeHzm-6" vertex="1">
                    <mxGeometry x="45" y="70" width="10" height="240" as="geometry"/>
                </mxCell>
                <mxCell id="1i8XbxQdBWijU6mkeHzm-8" value="" style="edgeStyle=elbowEdgeStyle;fontSize=12;html=1;endArrow=blockThin;endFill=1;entryX=1.02;entryY=0.676;entryDx=0;entryDy=0;entryPerimeter=0;rounded=0;" parent="1i8XbxQdBWijU6mkeHzm-6" edge="1">
                    <mxGeometry width="160" relative="1" as="geometry">
                        <mxPoint x="55" y="168.82999999999998" as="sourcePoint"/>
                        <mxPoint x="55.19999999999993" y="183.64" as="targetPoint"/>
                        <Array as="points">
                            <mxPoint x="70" y="179"/>
                        </Array>
                    </mxGeometry>
                </mxCell>
                <mxCell id="1i8XbxQdBWijU6mkeHzm-9" value="Check Transaction Status" style="edgeLabel;html=1;align=center;verticalAlign=middle;resizable=0;points=[];" parent="1i8XbxQdBWijU6mkeHzm-8" vertex="1" connectable="0">
                    <mxGeometry x="-0.1174" relative="1" as="geometry">
                        <mxPoint x="70" y="2" as="offset"/>
                    </mxGeometry>
                </mxCell>
                <mxCell id="1i8XbxQdBWijU6mkeHzm-10" value="Klik tombol &lt;br&gt;cek status pembayaran" style="html=1;verticalAlign=bottom;startArrow=oval;startFill=1;endArrow=block;startSize=8;entryX=0.052;entryY=0.099;entryDx=0;entryDy=0;entryPerimeter=0;" parent="1" target="1i8XbxQdBWijU6mkeHzm-3" edge="1">
                    <mxGeometry x="-0.9991" y="10" width="60" relative="1" as="geometry">
                        <mxPoint x="170" y="304" as="sourcePoint"/>
                        <mxPoint x="230" y="300" as="targetPoint"/>
                        <mxPoint as="offset"/>
                    </mxGeometry>
                </mxCell>
                <mxCell id="1i8XbxQdBWijU6mkeHzm-11" value="" style="edgeStyle=elbowEdgeStyle;fontSize=12;html=1;endArrow=blockThin;endFill=1;exitX=0.967;exitY=0.25;exitDx=0;exitDy=0;exitPerimeter=0;entryX=-0.035;entryY=0.251;entryDx=0;entryDy=0;entryPerimeter=0;" parent="1" source="1i8XbxQdBWijU6mkeHzm-3" target="1i8XbxQdBWijU6mkeHzm-5" edge="1">
                    <mxGeometry width="160" relative="1" as="geometry">
                        <mxPoint x="310" y="330" as="sourcePoint"/>
                        <mxPoint x="430" y="330" as="targetPoint"/>
                    </mxGeometry>
                </mxCell>
                <mxCell id="1i8XbxQdBWijU6mkeHzm-12" value="Mengirim data pembayaran" style="edgeLabel;html=1;align=center;verticalAlign=middle;resizable=0;points=[];" parent="1i8XbxQdBWijU6mkeHzm-11" vertex="1" connectable="0">
                    <mxGeometry x="-0.1156" relative="1" as="geometry">
                        <mxPoint y="-10" as="offset"/>
                    </mxGeometry>
                </mxCell>
                <mxCell id="1i8XbxQdBWijU6mkeHzm-13" value="" style="edgeStyle=elbowEdgeStyle;fontSize=12;html=1;endArrow=blockThin;endFill=1;exitX=1.021;exitY=0.351;exitDx=0;exitDy=0;exitPerimeter=0;entryX=0.004;entryY=0.352;entryDx=0;entryDy=0;entryPerimeter=0;rounded=0;" parent="1" source="1i8XbxQdBWijU6mkeHzm-5" target="1i8XbxQdBWijU6mkeHzm-7" edge="1">
                    <mxGeometry width="160" relative="1" as="geometry">
                        <mxPoint x="450" y="350" as="sourcePoint"/>
                        <mxPoint x="630" y="350" as="targetPoint"/>
                    </mxGeometry>
                </mxCell>
                <mxCell id="1i8XbxQdBWijU6mkeHzm-14" value="Request Transaction Status" style="edgeLabel;html=1;align=center;verticalAlign=middle;resizable=0;points=[];" parent="1i8XbxQdBWijU6mkeHzm-13" vertex="1" connectable="0">
                    <mxGeometry x="-0.1156" relative="1" as="geometry">
                        <mxPoint y="-10" as="offset"/>
                    </mxGeometry>
                </mxCell>
                <mxCell id="1i8XbxQdBWijU6mkeHzm-15" value="return response" style="html=1;verticalAlign=bottom;endArrow=open;dashed=1;endSize=8;exitX=-0.004;exitY=0.898;exitDx=0;exitDy=0;exitPerimeter=0;entryX=0.981;entryY=0.902;entryDx=0;entryDy=0;entryPerimeter=0;" parent="1" edge="1">
                    <mxGeometry relative="1" as="geometry">
                        <mxPoint x="434.96000000000004" y="504.5200000000001" as="sourcePoint"/>
                        <mxPoint x="244.80999999999995" y="505.48000000000013" as="targetPoint"/>
                    </mxGeometry>
                </mxCell>
                <mxCell id="1i8XbxQdBWijU6mkeHzm-16" value="Database" style="shape=umlLifeline;perimeter=lifelinePerimeter;whiteSpace=wrap;html=1;container=1;collapsible=0;recursiveResize=0;outlineConnect=0;" parent="1" vertex="1">
                    <mxGeometry x="790" y="210" width="100" height="340" as="geometry"/>
                </mxCell>
                <mxCell id="1i8XbxQdBWijU6mkeHzm-17" value="" style="html=1;points=[];perimeter=orthogonalPerimeter;" parent="1i8XbxQdBWijU6mkeHzm-16" vertex="1">
                    <mxGeometry x="45" y="70" width="10" height="240" as="geometry"/>
                </mxCell>
                <mxCell id="1i8XbxQdBWijU6mkeHzm-18" value="" style="edgeStyle=elbowEdgeStyle;fontSize=12;html=1;endArrow=blockThin;endFill=1;entryX=1.02;entryY=0.676;entryDx=0;entryDy=0;entryPerimeter=0;rounded=0;" parent="1i8XbxQdBWijU6mkeHzm-16" edge="1">
                    <mxGeometry width="160" relative="1" as="geometry">
                        <mxPoint x="55" y="229.82999999999998" as="sourcePoint"/>
                        <mxPoint x="55.19999999999993" y="244.64" as="targetPoint"/>
                        <Array as="points">
                            <mxPoint x="70" y="240"/>
                        </Array>
                    </mxGeometry>
                </mxCell>
                <mxCell id="1i8XbxQdBWijU6mkeHzm-19" value="Save Response" style="edgeLabel;html=1;align=center;verticalAlign=middle;resizable=0;points=[];" parent="1i8XbxQdBWijU6mkeHzm-18" vertex="1" connectable="0">
                    <mxGeometry x="-0.1302" relative="1" as="geometry">
                        <mxPoint x="43" as="offset"/>
                    </mxGeometry>
                </mxCell>
                <mxCell id="1i8XbxQdBWijU6mkeHzm-20" value="" style="edgeStyle=elbowEdgeStyle;fontSize=12;html=1;endArrow=blockThin;endFill=1;entryX=-0.01;entryY=0.651;entryDx=0;entryDy=0;entryPerimeter=0;rounded=0;exitX=1.023;exitY=0.649;exitDx=0;exitDy=0;exitPerimeter=0;" parent="1" edge="1">
                    <mxGeometry width="160" relative="1" as="geometry">
                        <mxPoint x="645.23" y="418.76" as="sourcePoint"/>
                        <mxPoint x="834.9000000000001" y="419.24" as="targetPoint"/>
                    </mxGeometry>
                </mxCell>
                <mxCell id="1i8XbxQdBWijU6mkeHzm-21" value="Return Response" style="edgeLabel;html=1;align=center;verticalAlign=middle;resizable=0;points=[];" parent="1i8XbxQdBWijU6mkeHzm-20" vertex="1" connectable="0">
                    <mxGeometry x="-0.1156" relative="1" as="geometry">
                        <mxPoint y="-10" as="offset"/>
                    </mxGeometry>
                </mxCell>
                <mxCell id="1i8XbxQdBWijU6mkeHzm-22" value="return response" style="html=1;verticalAlign=bottom;endArrow=open;dashed=1;endSize=8;exitX=-0.004;exitY=0.898;exitDx=0;exitDy=0;exitPerimeter=0;entryX=0.981;entryY=0.902;entryDx=0;entryDy=0;entryPerimeter=0;" parent="1" edge="1">
                    <mxGeometry relative="1" as="geometry">
                        <mxPoint x="835.1499999999996" y="473" as="sourcePoint"/>
                        <mxPoint x="645" y="473.96000000000004" as="targetPoint"/>
                    </mxGeometry>
                </mxCell>
                <mxCell id="1i8XbxQdBWijU6mkeHzm-23" value="return response" style="html=1;verticalAlign=bottom;endArrow=open;dashed=1;endSize=8;exitX=-0.004;exitY=0.898;exitDx=0;exitDy=0;exitPerimeter=0;entryX=0.981;entryY=0.902;entryDx=0;entryDy=0;entryPerimeter=0;" parent="1" edge="1">
                    <mxGeometry relative="1" as="geometry">
                        <mxPoint x="634.1499999999999" y="490" as="sourcePoint"/>
                        <mxPoint x="444" y="490.96000000000004" as="targetPoint"/>
                    </mxGeometry>
                </mxCell>
            </root>
        </mxGraphModel>
    </diagram>
    <diagram id="xiRs-uCfgqFuTMbt18pu" name="Cek Riwayat Transaksi">
        <mxGraphModel dx="1059" dy="806" grid="1" gridSize="10" guides="1" tooltips="1" connect="1" arrows="1" fold="1" page="1" pageScale="1" pageWidth="850" pageHeight="1100" math="0" shadow="0">
            <root>
                <mxCell id="0"/>
                <mxCell id="1" parent="0"/>
                <mxCell id="jMSKvSZC2i0mfNVSejJe-1" value="&lt;font style=&quot;font-size: 11px;&quot;&gt;Transaction History&lt;/font&gt;" style="shape=umlFrame;whiteSpace=wrap;html=1;" parent="1" vertex="1">
                    <mxGeometry x="105" y="160" width="625" height="380" as="geometry"/>
                </mxCell>
                <mxCell id="jMSKvSZC2i0mfNVSejJe-2" value="Mobile" style="shape=umlLifeline;perimeter=lifelinePerimeter;whiteSpace=wrap;html=1;container=1;collapsible=0;recursiveResize=0;outlineConnect=0;" parent="1" vertex="1">
                    <mxGeometry x="190" y="210" width="100" height="300" as="geometry"/>
                </mxCell>
                <mxCell id="jMSKvSZC2i0mfNVSejJe-3" value="" style="html=1;points=[];perimeter=orthogonalPerimeter;" parent="jMSKvSZC2i0mfNVSejJe-2" vertex="1">
                    <mxGeometry x="45" y="70" width="10" height="200" as="geometry"/>
                </mxCell>
                <mxCell id="jMSKvSZC2i0mfNVSejJe-4" value="API" style="shape=umlLifeline;perimeter=lifelinePerimeter;whiteSpace=wrap;html=1;container=1;collapsible=0;recursiveResize=0;outlineConnect=0;" parent="1" vertex="1">
                    <mxGeometry x="390" y="210" width="100" height="300" as="geometry"/>
                </mxCell>
                <mxCell id="jMSKvSZC2i0mfNVSejJe-5" value="" style="html=1;points=[];perimeter=orthogonalPerimeter;" parent="jMSKvSZC2i0mfNVSejJe-4" vertex="1">
                    <mxGeometry x="45" y="70" width="10" height="200" as="geometry"/>
                </mxCell>
                <mxCell id="jMSKvSZC2i0mfNVSejJe-7" value="Database" style="shape=umlLifeline;perimeter=lifelinePerimeter;whiteSpace=wrap;html=1;container=1;collapsible=0;recursiveResize=0;outlineConnect=0;" parent="1" vertex="1">
                    <mxGeometry x="590" y="210" width="100" height="300" as="geometry"/>
                </mxCell>
                <mxCell id="jMSKvSZC2i0mfNVSejJe-8" value="" style="html=1;points=[];perimeter=orthogonalPerimeter;" parent="jMSKvSZC2i0mfNVSejJe-7" vertex="1">
                    <mxGeometry x="45" y="70" width="10" height="140" as="geometry"/>
                </mxCell>
                <mxCell id="jMSKvSZC2i0mfNVSejJe-9" value="" style="edgeStyle=elbowEdgeStyle;fontSize=12;html=1;endArrow=blockThin;endFill=1;entryX=1.02;entryY=0.676;entryDx=0;entryDy=0;entryPerimeter=0;rounded=0;" parent="jMSKvSZC2i0mfNVSejJe-7" edge="1">
                    <mxGeometry width="160" relative="1" as="geometry">
                        <mxPoint x="55" y="154.82999999999998" as="sourcePoint"/>
                        <mxPoint x="55.19999999999993" y="169.64" as="targetPoint"/>
                        <Array as="points">
                            <mxPoint x="70" y="165"/>
                        </Array>
                    </mxGeometry>
                </mxCell>
                <mxCell id="jMSKvSZC2i0mfNVSejJe-10" value="Klik tombol history" style="html=1;verticalAlign=bottom;startArrow=oval;startFill=1;endArrow=block;startSize=8;entryX=0.052;entryY=0.099;entryDx=0;entryDy=0;entryPerimeter=0;" parent="1" target="jMSKvSZC2i0mfNVSejJe-3" edge="1">
                    <mxGeometry x="-0.9991" y="10" width="60" relative="1" as="geometry">
                        <mxPoint x="170" y="300" as="sourcePoint"/>
                        <mxPoint x="230" y="300" as="targetPoint"/>
                        <mxPoint as="offset"/>
                    </mxGeometry>
                </mxCell>
                <mxCell id="jMSKvSZC2i0mfNVSejJe-11" value="" style="edgeStyle=elbowEdgeStyle;fontSize=12;html=1;endArrow=blockThin;endFill=1;exitX=0.967;exitY=0.25;exitDx=0;exitDy=0;exitPerimeter=0;entryX=-0.035;entryY=0.251;entryDx=0;entryDy=0;entryPerimeter=0;" parent="1" source="jMSKvSZC2i0mfNVSejJe-3" target="jMSKvSZC2i0mfNVSejJe-5" edge="1">
                    <mxGeometry width="160" relative="1" as="geometry">
                        <mxPoint x="310" y="330" as="sourcePoint"/>
                        <mxPoint x="430" y="330" as="targetPoint"/>
                    </mxGeometry>
                </mxCell>
                <mxCell id="jMSKvSZC2i0mfNVSejJe-12" value="Mengirim data user" style="edgeLabel;html=1;align=center;verticalAlign=middle;resizable=0;points=[];" parent="jMSKvSZC2i0mfNVSejJe-11" vertex="1" connectable="0">
                    <mxGeometry x="-0.1156" relative="1" as="geometry">
                        <mxPoint y="-10" as="offset"/>
                    </mxGeometry>
                </mxCell>
                <mxCell id="jMSKvSZC2i0mfNVSejJe-13" value="" style="edgeStyle=elbowEdgeStyle;fontSize=12;html=1;endArrow=blockThin;endFill=1;exitX=1.021;exitY=0.351;exitDx=0;exitDy=0;exitPerimeter=0;entryX=-0.113;entryY=0.503;entryDx=0;entryDy=0;entryPerimeter=0;" parent="1" source="jMSKvSZC2i0mfNVSejJe-5" target="jMSKvSZC2i0mfNVSejJe-8" edge="1">
                    <mxGeometry width="160" relative="1" as="geometry">
                        <mxPoint x="450" y="350" as="sourcePoint"/>
                        <mxPoint x="630" y="350" as="targetPoint"/>
                    </mxGeometry>
                </mxCell>
                <mxCell id="jMSKvSZC2i0mfNVSejJe-14" value="Request transaction history" style="edgeLabel;html=1;align=center;verticalAlign=middle;resizable=0;points=[];" parent="jMSKvSZC2i0mfNVSejJe-13" vertex="1" connectable="0">
                    <mxGeometry x="-0.1156" relative="1" as="geometry">
                        <mxPoint y="-10" as="offset"/>
                    </mxGeometry>
                </mxCell>
                <mxCell id="jMSKvSZC2i0mfNVSejJe-15" value="return data" style="html=1;verticalAlign=bottom;endArrow=open;dashed=1;endSize=8;exitX=-0.113;exitY=0.865;exitDx=0;exitDy=0;exitPerimeter=0;entryX=0.967;entryY=0.604;entryDx=0;entryDy=0;entryPerimeter=0;" parent="1" source="jMSKvSZC2i0mfNVSejJe-8" target="jMSKvSZC2i0mfNVSejJe-5" edge="1">
                    <mxGeometry relative="1" as="geometry">
                        <mxPoint x="570" y="400" as="sourcePoint"/>
                        <mxPoint x="490" y="400" as="targetPoint"/>
                    </mxGeometry>
                </mxCell>
                <mxCell id="jMSKvSZC2i0mfNVSejJe-16" value="return response" style="html=1;verticalAlign=bottom;endArrow=open;dashed=1;endSize=8;exitX=-0.004;exitY=0.898;exitDx=0;exitDy=0;exitPerimeter=0;entryX=0.981;entryY=0.902;entryDx=0;entryDy=0;entryPerimeter=0;" parent="1" edge="1">
                    <mxGeometry relative="1" as="geometry">
                        <mxPoint x="434.9599999999999" y="430.5999999999999" as="sourcePoint"/>
                        <mxPoint x="244.80999999999995" y="431.4" as="targetPoint"/>
                    </mxGeometry>
                </mxCell>
            </root>
        </mxGraphModel>
    </diagram>
    <diagram id="Fvd9-KEbaBunyqu7gBYi" name="Pulsa &amp; Paket Data">
        <mxGraphModel dx="730" dy="556" grid="1" gridSize="10" guides="1" tooltips="1" connect="1" arrows="1" fold="1" page="1" pageScale="1" pageWidth="850" pageHeight="1100" math="0" shadow="0">
            <root>
                <mxCell id="0"/>
                <mxCell id="1" parent="0"/>
                <mxCell id="hNxV-uS0v4rHyL7o5ija-1" value="&lt;font style=&quot;font-size: 11px;&quot;&gt;Pembelian Pulsa &amp;amp; Paket Data&lt;/font&gt;" style="shape=umlFrame;whiteSpace=wrap;html=1;width=125;height=30;" vertex="1" parent="1">
                    <mxGeometry x="105" y="160" width="625" height="380" as="geometry"/>
                </mxCell>
                <mxCell id="hNxV-uS0v4rHyL7o5ija-2" value="Mobile" style="shape=umlLifeline;perimeter=lifelinePerimeter;whiteSpace=wrap;html=1;container=1;collapsible=0;recursiveResize=0;outlineConnect=0;" vertex="1" parent="1">
                    <mxGeometry x="190" y="210" width="100" height="300" as="geometry"/>
                </mxCell>
                <mxCell id="hNxV-uS0v4rHyL7o5ija-3" value="" style="html=1;points=[];perimeter=orthogonalPerimeter;" vertex="1" parent="hNxV-uS0v4rHyL7o5ija-2">
                    <mxGeometry x="45" y="70" width="10" height="200" as="geometry"/>
                </mxCell>
                <mxCell id="hNxV-uS0v4rHyL7o5ija-4" value="API" style="shape=umlLifeline;perimeter=lifelinePerimeter;whiteSpace=wrap;html=1;container=1;collapsible=0;recursiveResize=0;outlineConnect=0;" vertex="1" parent="1">
                    <mxGeometry x="390" y="210" width="100" height="300" as="geometry"/>
                </mxCell>
                <mxCell id="hNxV-uS0v4rHyL7o5ija-5" value="" style="html=1;points=[];perimeter=orthogonalPerimeter;" vertex="1" parent="hNxV-uS0v4rHyL7o5ija-4">
                    <mxGeometry x="45" y="70" width="10" height="200" as="geometry"/>
                </mxCell>
                <mxCell id="hNxV-uS0v4rHyL7o5ija-6" value="Database" style="shape=umlLifeline;perimeter=lifelinePerimeter;whiteSpace=wrap;html=1;container=1;collapsible=0;recursiveResize=0;outlineConnect=0;" vertex="1" parent="1">
                    <mxGeometry x="590" y="210" width="100" height="300" as="geometry"/>
                </mxCell>
                <mxCell id="hNxV-uS0v4rHyL7o5ija-7" value="" style="html=1;points=[];perimeter=orthogonalPerimeter;" vertex="1" parent="hNxV-uS0v4rHyL7o5ija-6">
                    <mxGeometry x="45" y="70" width="10" height="140" as="geometry"/>
                </mxCell>
                <mxCell id="hNxV-uS0v4rHyL7o5ija-8" value="" style="edgeStyle=elbowEdgeStyle;fontSize=12;html=1;endArrow=blockThin;endFill=1;entryX=1.02;entryY=0.676;entryDx=0;entryDy=0;entryPerimeter=0;rounded=0;" edge="1" parent="hNxV-uS0v4rHyL7o5ija-6">
                    <mxGeometry width="160" relative="1" as="geometry">
                        <mxPoint x="55" y="154.82999999999998" as="sourcePoint"/>
                        <mxPoint x="55.19999999999993" y="169.64" as="targetPoint"/>
                        <Array as="points">
                            <mxPoint x="70" y="165"/>
                        </Array>
                    </mxGeometry>
                </mxCell>
                <mxCell id="hNxV-uS0v4rHyL7o5ija-9" value="Klik tombol pembayaran&lt;br&gt;Pulsa / Paket Data" style="html=1;verticalAlign=bottom;startArrow=oval;startFill=1;endArrow=block;startSize=8;entryX=0.052;entryY=0.099;entryDx=0;entryDy=0;entryPerimeter=0;" edge="1" parent="1" target="hNxV-uS0v4rHyL7o5ija-3">
                    <mxGeometry x="-0.9991" y="10" width="60" relative="1" as="geometry">
                        <mxPoint x="170" y="300" as="sourcePoint"/>
                        <mxPoint x="230" y="300" as="targetPoint"/>
                        <mxPoint as="offset"/>
                    </mxGeometry>
                </mxCell>
                <mxCell id="hNxV-uS0v4rHyL7o5ija-10" value="" style="edgeStyle=elbowEdgeStyle;fontSize=12;html=1;endArrow=blockThin;endFill=1;exitX=0.967;exitY=0.25;exitDx=0;exitDy=0;exitPerimeter=0;entryX=-0.035;entryY=0.251;entryDx=0;entryDy=0;entryPerimeter=0;" edge="1" parent="1" source="hNxV-uS0v4rHyL7o5ija-3" target="hNxV-uS0v4rHyL7o5ija-5">
                    <mxGeometry width="160" relative="1" as="geometry">
                        <mxPoint x="310" y="330" as="sourcePoint"/>
                        <mxPoint x="430" y="330" as="targetPoint"/>
                    </mxGeometry>
                </mxCell>
                <mxCell id="hNxV-uS0v4rHyL7o5ija-11" value="Mengirim data transaksi" style="edgeLabel;html=1;align=center;verticalAlign=middle;resizable=0;points=[];" vertex="1" connectable="0" parent="hNxV-uS0v4rHyL7o5ija-10">
                    <mxGeometry x="-0.1156" relative="1" as="geometry">
                        <mxPoint y="-10" as="offset"/>
                    </mxGeometry>
                </mxCell>
                <mxCell id="hNxV-uS0v4rHyL7o5ija-12" value="" style="edgeStyle=elbowEdgeStyle;fontSize=12;html=1;endArrow=blockThin;endFill=1;exitX=1.021;exitY=0.351;exitDx=0;exitDy=0;exitPerimeter=0;entryX=-0.113;entryY=0.503;entryDx=0;entryDy=0;entryPerimeter=0;" edge="1" parent="1" source="hNxV-uS0v4rHyL7o5ija-5" target="hNxV-uS0v4rHyL7o5ija-7">
                    <mxGeometry width="160" relative="1" as="geometry">
                        <mxPoint x="450" y="350" as="sourcePoint"/>
                        <mxPoint x="630" y="350" as="targetPoint"/>
                    </mxGeometry>
                </mxCell>
                <mxCell id="hNxV-uS0v4rHyL7o5ija-13" value="Input data transaksi" style="edgeLabel;html=1;align=center;verticalAlign=middle;resizable=0;points=[];" vertex="1" connectable="0" parent="hNxV-uS0v4rHyL7o5ija-12">
                    <mxGeometry x="-0.1156" relative="1" as="geometry">
                        <mxPoint y="-10" as="offset"/>
                    </mxGeometry>
                </mxCell>
                <mxCell id="hNxV-uS0v4rHyL7o5ija-14" value="return data" style="html=1;verticalAlign=bottom;endArrow=open;dashed=1;endSize=8;exitX=-0.113;exitY=0.865;exitDx=0;exitDy=0;exitPerimeter=0;entryX=0.967;entryY=0.604;entryDx=0;entryDy=0;entryPerimeter=0;" edge="1" parent="1" source="hNxV-uS0v4rHyL7o5ija-7" target="hNxV-uS0v4rHyL7o5ija-5">
                    <mxGeometry relative="1" as="geometry">
                        <mxPoint x="570" y="400" as="sourcePoint"/>
                        <mxPoint x="490" y="400" as="targetPoint"/>
                    </mxGeometry>
                </mxCell>
                <mxCell id="hNxV-uS0v4rHyL7o5ija-15" value="return response" style="html=1;verticalAlign=bottom;endArrow=open;dashed=1;endSize=8;exitX=-0.004;exitY=0.898;exitDx=0;exitDy=0;exitPerimeter=0;entryX=0.981;entryY=0.902;entryDx=0;entryDy=0;entryPerimeter=0;" edge="1" parent="1">
                    <mxGeometry relative="1" as="geometry">
                        <mxPoint x="434.96000000000004" y="430.5999999999999" as="sourcePoint"/>
                        <mxPoint x="244.80999999999995" y="431.4000000000001" as="targetPoint"/>
                    </mxGeometry>
                </mxCell>
            </root>
        </mxGraphModel>
    </diagram>
    <diagram id="Hs-DlFgs1lDoW2geKDCI" name="PDAM">
        <mxGraphModel dx="1059" dy="806" grid="1" gridSize="10" guides="1" tooltips="1" connect="1" arrows="1" fold="1" page="1" pageScale="1" pageWidth="850" pageHeight="1100" math="0" shadow="0">
            <root>
                <mxCell id="0"/>
                <mxCell id="1" parent="0"/>
                <mxCell id="KGj8H8Yw4unUZvgJiDGh-1" value="&lt;font style=&quot;font-size: 11px;&quot;&gt;Pembayaran Tagihan PDAM&lt;/font&gt;" style="shape=umlFrame;whiteSpace=wrap;html=1;width=115;height=30;" vertex="1" parent="1">
                    <mxGeometry x="105" y="160" width="625" height="380" as="geometry"/>
                </mxCell>
                <mxCell id="KGj8H8Yw4unUZvgJiDGh-2" value="Mobile" style="shape=umlLifeline;perimeter=lifelinePerimeter;whiteSpace=wrap;html=1;container=1;collapsible=0;recursiveResize=0;outlineConnect=0;" vertex="1" parent="1">
                    <mxGeometry x="190" y="210" width="100" height="300" as="geometry"/>
                </mxCell>
                <mxCell id="KGj8H8Yw4unUZvgJiDGh-3" value="" style="html=1;points=[];perimeter=orthogonalPerimeter;" vertex="1" parent="KGj8H8Yw4unUZvgJiDGh-2">
                    <mxGeometry x="45" y="70" width="10" height="200" as="geometry"/>
                </mxCell>
                <mxCell id="KGj8H8Yw4unUZvgJiDGh-4" value="API" style="shape=umlLifeline;perimeter=lifelinePerimeter;whiteSpace=wrap;html=1;container=1;collapsible=0;recursiveResize=0;outlineConnect=0;" vertex="1" parent="1">
                    <mxGeometry x="390" y="210" width="100" height="300" as="geometry"/>
                </mxCell>
                <mxCell id="KGj8H8Yw4unUZvgJiDGh-5" value="" style="html=1;points=[];perimeter=orthogonalPerimeter;" vertex="1" parent="KGj8H8Yw4unUZvgJiDGh-4">
                    <mxGeometry x="45" y="70" width="10" height="200" as="geometry"/>
                </mxCell>
                <mxCell id="KGj8H8Yw4unUZvgJiDGh-6" value="Database" style="shape=umlLifeline;perimeter=lifelinePerimeter;whiteSpace=wrap;html=1;container=1;collapsible=0;recursiveResize=0;outlineConnect=0;" vertex="1" parent="1">
                    <mxGeometry x="590" y="210" width="100" height="300" as="geometry"/>
                </mxCell>
                <mxCell id="KGj8H8Yw4unUZvgJiDGh-7" value="" style="html=1;points=[];perimeter=orthogonalPerimeter;" vertex="1" parent="KGj8H8Yw4unUZvgJiDGh-6">
                    <mxGeometry x="45" y="70" width="10" height="140" as="geometry"/>
                </mxCell>
                <mxCell id="KGj8H8Yw4unUZvgJiDGh-8" value="" style="edgeStyle=elbowEdgeStyle;fontSize=12;html=1;endArrow=blockThin;endFill=1;entryX=1.02;entryY=0.676;entryDx=0;entryDy=0;entryPerimeter=0;rounded=0;" edge="1" parent="KGj8H8Yw4unUZvgJiDGh-6">
                    <mxGeometry width="160" relative="1" as="geometry">
                        <mxPoint x="55" y="154.82999999999998" as="sourcePoint"/>
                        <mxPoint x="55.19999999999993" y="169.64" as="targetPoint"/>
                        <Array as="points">
                            <mxPoint x="70" y="165"/>
                        </Array>
                    </mxGeometry>
                </mxCell>
                <mxCell id="KGj8H8Yw4unUZvgJiDGh-9" value="Klik tombol pembayaran&lt;br&gt;PDAM" style="html=1;verticalAlign=bottom;startArrow=oval;startFill=1;endArrow=block;startSize=8;entryX=0.052;entryY=0.099;entryDx=0;entryDy=0;entryPerimeter=0;" edge="1" parent="1" target="KGj8H8Yw4unUZvgJiDGh-3">
                    <mxGeometry x="-0.9991" y="10" width="60" relative="1" as="geometry">
                        <mxPoint x="170" y="300.0000000000001" as="sourcePoint"/>
                        <mxPoint x="230" y="300" as="targetPoint"/>
                        <mxPoint as="offset"/>
                    </mxGeometry>
                </mxCell>
                <mxCell id="KGj8H8Yw4unUZvgJiDGh-10" value="" style="edgeStyle=elbowEdgeStyle;fontSize=12;html=1;endArrow=blockThin;endFill=1;exitX=0.967;exitY=0.25;exitDx=0;exitDy=0;exitPerimeter=0;entryX=-0.035;entryY=0.251;entryDx=0;entryDy=0;entryPerimeter=0;" edge="1" parent="1" source="KGj8H8Yw4unUZvgJiDGh-3" target="KGj8H8Yw4unUZvgJiDGh-5">
                    <mxGeometry width="160" relative="1" as="geometry">
                        <mxPoint x="310" y="330" as="sourcePoint"/>
                        <mxPoint x="430" y="330" as="targetPoint"/>
                    </mxGeometry>
                </mxCell>
                <mxCell id="KGj8H8Yw4unUZvgJiDGh-11" value="Mengirim data transaksi" style="edgeLabel;html=1;align=center;verticalAlign=middle;resizable=0;points=[];" vertex="1" connectable="0" parent="KGj8H8Yw4unUZvgJiDGh-10">
                    <mxGeometry x="-0.1156" relative="1" as="geometry">
                        <mxPoint y="-10" as="offset"/>
                    </mxGeometry>
                </mxCell>
                <mxCell id="KGj8H8Yw4unUZvgJiDGh-12" value="" style="edgeStyle=elbowEdgeStyle;fontSize=12;html=1;endArrow=blockThin;endFill=1;exitX=1.021;exitY=0.351;exitDx=0;exitDy=0;exitPerimeter=0;entryX=-0.113;entryY=0.503;entryDx=0;entryDy=0;entryPerimeter=0;" edge="1" parent="1" source="KGj8H8Yw4unUZvgJiDGh-5" target="KGj8H8Yw4unUZvgJiDGh-7">
                    <mxGeometry width="160" relative="1" as="geometry">
                        <mxPoint x="450" y="350" as="sourcePoint"/>
                        <mxPoint x="630" y="350" as="targetPoint"/>
                    </mxGeometry>
                </mxCell>
                <mxCell id="KGj8H8Yw4unUZvgJiDGh-13" value="Input data transaksi" style="edgeLabel;html=1;align=center;verticalAlign=middle;resizable=0;points=[];" vertex="1" connectable="0" parent="KGj8H8Yw4unUZvgJiDGh-12">
                    <mxGeometry x="-0.1156" relative="1" as="geometry">
                        <mxPoint y="-10" as="offset"/>
                    </mxGeometry>
                </mxCell>
                <mxCell id="KGj8H8Yw4unUZvgJiDGh-14" value="return data" style="html=1;verticalAlign=bottom;endArrow=open;dashed=1;endSize=8;exitX=-0.113;exitY=0.865;exitDx=0;exitDy=0;exitPerimeter=0;entryX=0.967;entryY=0.604;entryDx=0;entryDy=0;entryPerimeter=0;" edge="1" parent="1" source="KGj8H8Yw4unUZvgJiDGh-7" target="KGj8H8Yw4unUZvgJiDGh-5">
                    <mxGeometry relative="1" as="geometry">
                        <mxPoint x="570" y="400" as="sourcePoint"/>
                        <mxPoint x="490" y="400" as="targetPoint"/>
                    </mxGeometry>
                </mxCell>
                <mxCell id="KGj8H8Yw4unUZvgJiDGh-15" value="return response" style="html=1;verticalAlign=bottom;endArrow=open;dashed=1;endSize=8;exitX=-0.004;exitY=0.898;exitDx=0;exitDy=0;exitPerimeter=0;entryX=0.981;entryY=0.902;entryDx=0;entryDy=0;entryPerimeter=0;" edge="1" parent="1">
                    <mxGeometry relative="1" as="geometry">
                        <mxPoint x="434.96000000000004" y="430.6" as="sourcePoint"/>
                        <mxPoint x="244.80999999999995" y="431.4000000000001" as="targetPoint"/>
                    </mxGeometry>
                </mxCell>
            </root>
        </mxGraphModel>
    </diagram>
    <diagram id="_PGl9GdEZS8g0INAfRIQ" name="PLN">
        <mxGraphModel dx="1059" dy="806" grid="1" gridSize="10" guides="1" tooltips="1" connect="1" arrows="1" fold="1" page="1" pageScale="1" pageWidth="850" pageHeight="1100" math="0" shadow="0">
            <root>
                <mxCell id="0"/>
                <mxCell id="1" parent="0"/>
                <mxCell id="UPUZ-nTFTeM-1zuWpNgX-1" value="&lt;font style=&quot;font-size: 11px;&quot;&gt;Pembayaran Tagihan PLN&lt;/font&gt;" style="shape=umlFrame;whiteSpace=wrap;html=1;width=115;height=30;" vertex="1" parent="1">
                    <mxGeometry x="105" y="160" width="625" height="380" as="geometry"/>
                </mxCell>
                <mxCell id="UPUZ-nTFTeM-1zuWpNgX-2" value="Mobile" style="shape=umlLifeline;perimeter=lifelinePerimeter;whiteSpace=wrap;html=1;container=1;collapsible=0;recursiveResize=0;outlineConnect=0;" vertex="1" parent="1">
                    <mxGeometry x="190" y="210" width="100" height="300" as="geometry"/>
                </mxCell>
                <mxCell id="UPUZ-nTFTeM-1zuWpNgX-3" value="" style="html=1;points=[];perimeter=orthogonalPerimeter;" vertex="1" parent="UPUZ-nTFTeM-1zuWpNgX-2">
                    <mxGeometry x="45" y="70" width="10" height="200" as="geometry"/>
                </mxCell>
                <mxCell id="UPUZ-nTFTeM-1zuWpNgX-4" value="API" style="shape=umlLifeline;perimeter=lifelinePerimeter;whiteSpace=wrap;html=1;container=1;collapsible=0;recursiveResize=0;outlineConnect=0;" vertex="1" parent="1">
                    <mxGeometry x="390" y="210" width="100" height="300" as="geometry"/>
                </mxCell>
                <mxCell id="UPUZ-nTFTeM-1zuWpNgX-5" value="" style="html=1;points=[];perimeter=orthogonalPerimeter;" vertex="1" parent="UPUZ-nTFTeM-1zuWpNgX-4">
                    <mxGeometry x="45" y="70" width="10" height="200" as="geometry"/>
                </mxCell>
                <mxCell id="UPUZ-nTFTeM-1zuWpNgX-6" value="Database" style="shape=umlLifeline;perimeter=lifelinePerimeter;whiteSpace=wrap;html=1;container=1;collapsible=0;recursiveResize=0;outlineConnect=0;" vertex="1" parent="1">
                    <mxGeometry x="590" y="210" width="100" height="300" as="geometry"/>
                </mxCell>
                <mxCell id="UPUZ-nTFTeM-1zuWpNgX-7" value="" style="html=1;points=[];perimeter=orthogonalPerimeter;" vertex="1" parent="UPUZ-nTFTeM-1zuWpNgX-6">
                    <mxGeometry x="45" y="70" width="10" height="140" as="geometry"/>
                </mxCell>
                <mxCell id="UPUZ-nTFTeM-1zuWpNgX-8" value="" style="edgeStyle=elbowEdgeStyle;fontSize=12;html=1;endArrow=blockThin;endFill=1;entryX=1.02;entryY=0.676;entryDx=0;entryDy=0;entryPerimeter=0;rounded=0;" edge="1" parent="UPUZ-nTFTeM-1zuWpNgX-6">
                    <mxGeometry width="160" relative="1" as="geometry">
                        <mxPoint x="55" y="154.82999999999998" as="sourcePoint"/>
                        <mxPoint x="55.19999999999993" y="169.64" as="targetPoint"/>
                        <Array as="points">
                            <mxPoint x="70" y="165"/>
                        </Array>
                    </mxGeometry>
                </mxCell>
                <mxCell id="UPUZ-nTFTeM-1zuWpNgX-9" value="Klik tombol pembayaran&lt;br&gt;PLN" style="html=1;verticalAlign=bottom;startArrow=oval;startFill=1;endArrow=block;startSize=8;entryX=0.052;entryY=0.099;entryDx=0;entryDy=0;entryPerimeter=0;" edge="1" parent="1" target="UPUZ-nTFTeM-1zuWpNgX-3">
                    <mxGeometry x="-0.9991" y="10" width="60" relative="1" as="geometry">
                        <mxPoint x="170" y="300" as="sourcePoint"/>
                        <mxPoint x="230" y="300" as="targetPoint"/>
                        <mxPoint as="offset"/>
                    </mxGeometry>
                </mxCell>
                <mxCell id="UPUZ-nTFTeM-1zuWpNgX-10" value="" style="edgeStyle=elbowEdgeStyle;fontSize=12;html=1;endArrow=blockThin;endFill=1;exitX=0.967;exitY=0.25;exitDx=0;exitDy=0;exitPerimeter=0;entryX=-0.035;entryY=0.251;entryDx=0;entryDy=0;entryPerimeter=0;" edge="1" parent="1" source="UPUZ-nTFTeM-1zuWpNgX-3" target="UPUZ-nTFTeM-1zuWpNgX-5">
                    <mxGeometry width="160" relative="1" as="geometry">
                        <mxPoint x="310" y="330" as="sourcePoint"/>
                        <mxPoint x="430" y="330" as="targetPoint"/>
                    </mxGeometry>
                </mxCell>
                <mxCell id="UPUZ-nTFTeM-1zuWpNgX-11" value="Mengirim data transaksi" style="edgeLabel;html=1;align=center;verticalAlign=middle;resizable=0;points=[];" vertex="1" connectable="0" parent="UPUZ-nTFTeM-1zuWpNgX-10">
                    <mxGeometry x="-0.1156" relative="1" as="geometry">
                        <mxPoint y="-10" as="offset"/>
                    </mxGeometry>
                </mxCell>
                <mxCell id="UPUZ-nTFTeM-1zuWpNgX-12" value="" style="edgeStyle=elbowEdgeStyle;fontSize=12;html=1;endArrow=blockThin;endFill=1;exitX=1.021;exitY=0.351;exitDx=0;exitDy=0;exitPerimeter=0;entryX=-0.113;entryY=0.503;entryDx=0;entryDy=0;entryPerimeter=0;" edge="1" parent="1" source="UPUZ-nTFTeM-1zuWpNgX-5" target="UPUZ-nTFTeM-1zuWpNgX-7">
                    <mxGeometry width="160" relative="1" as="geometry">
                        <mxPoint x="450" y="350" as="sourcePoint"/>
                        <mxPoint x="630" y="350" as="targetPoint"/>
                    </mxGeometry>
                </mxCell>
                <mxCell id="UPUZ-nTFTeM-1zuWpNgX-13" value="Input data transaksi" style="edgeLabel;html=1;align=center;verticalAlign=middle;resizable=0;points=[];" vertex="1" connectable="0" parent="UPUZ-nTFTeM-1zuWpNgX-12">
                    <mxGeometry x="-0.1156" relative="1" as="geometry">
                        <mxPoint y="-10" as="offset"/>
                    </mxGeometry>
                </mxCell>
                <mxCell id="UPUZ-nTFTeM-1zuWpNgX-14" value="return data" style="html=1;verticalAlign=bottom;endArrow=open;dashed=1;endSize=8;exitX=-0.113;exitY=0.865;exitDx=0;exitDy=0;exitPerimeter=0;entryX=0.967;entryY=0.604;entryDx=0;entryDy=0;entryPerimeter=0;" edge="1" parent="1" source="UPUZ-nTFTeM-1zuWpNgX-7" target="UPUZ-nTFTeM-1zuWpNgX-5">
                    <mxGeometry relative="1" as="geometry">
                        <mxPoint x="570" y="400" as="sourcePoint"/>
                        <mxPoint x="490" y="400" as="targetPoint"/>
                    </mxGeometry>
                </mxCell>
                <mxCell id="UPUZ-nTFTeM-1zuWpNgX-15" value="return response" style="html=1;verticalAlign=bottom;endArrow=open;dashed=1;endSize=8;exitX=-0.004;exitY=0.898;exitDx=0;exitDy=0;exitPerimeter=0;entryX=0.981;entryY=0.902;entryDx=0;entryDy=0;entryPerimeter=0;" edge="1" parent="1">
                    <mxGeometry relative="1" as="geometry">
                        <mxPoint x="434.96000000000004" y="430.5999999999999" as="sourcePoint"/>
                        <mxPoint x="244.80999999999995" y="431.4000000000001" as="targetPoint"/>
                    </mxGeometry>
                </mxCell>
            </root>
        </mxGraphModel>
    </diagram>
    <diagram id="4U9rHAV-cJOcD_re0lcH" name="Melihat Promo">
        <mxGraphModel dx="730" dy="556" grid="1" gridSize="10" guides="1" tooltips="1" connect="1" arrows="1" fold="1" page="1" pageScale="1" pageWidth="850" pageHeight="1100" math="0" shadow="0">
            <root>
                <mxCell id="0"/>
                <mxCell id="1" parent="0"/>
                <mxCell id="xoxZfrz6zfriWw-9RkuA-1" value="&lt;font style=&quot;font-size: 11px;&quot;&gt;Melihat Promo&lt;/font&gt;" style="shape=umlFrame;whiteSpace=wrap;html=1;width=95;height=30;" vertex="1" parent="1">
                    <mxGeometry x="105" y="160" width="625" height="380" as="geometry"/>
                </mxCell>
                <mxCell id="xoxZfrz6zfriWw-9RkuA-2" value="Mobile" style="shape=umlLifeline;perimeter=lifelinePerimeter;whiteSpace=wrap;html=1;container=1;collapsible=0;recursiveResize=0;outlineConnect=0;" vertex="1" parent="1">
                    <mxGeometry x="190" y="210" width="100" height="300" as="geometry"/>
                </mxCell>
                <mxCell id="xoxZfrz6zfriWw-9RkuA-3" value="" style="html=1;points=[];perimeter=orthogonalPerimeter;" vertex="1" parent="xoxZfrz6zfriWw-9RkuA-2">
                    <mxGeometry x="45" y="70" width="10" height="200" as="geometry"/>
                </mxCell>
                <mxCell id="xoxZfrz6zfriWw-9RkuA-4" value="API" style="shape=umlLifeline;perimeter=lifelinePerimeter;whiteSpace=wrap;html=1;container=1;collapsible=0;recursiveResize=0;outlineConnect=0;" vertex="1" parent="1">
                    <mxGeometry x="390" y="210" width="100" height="300" as="geometry"/>
                </mxCell>
                <mxCell id="xoxZfrz6zfriWw-9RkuA-5" value="" style="html=1;points=[];perimeter=orthogonalPerimeter;" vertex="1" parent="xoxZfrz6zfriWw-9RkuA-4">
                    <mxGeometry x="45" y="70" width="10" height="200" as="geometry"/>
                </mxCell>
                <mxCell id="xoxZfrz6zfriWw-9RkuA-6" value="Database" style="shape=umlLifeline;perimeter=lifelinePerimeter;whiteSpace=wrap;html=1;container=1;collapsible=0;recursiveResize=0;outlineConnect=0;" vertex="1" parent="1">
                    <mxGeometry x="590" y="210" width="100" height="300" as="geometry"/>
                </mxCell>
                <mxCell id="xoxZfrz6zfriWw-9RkuA-7" value="" style="html=1;points=[];perimeter=orthogonalPerimeter;" vertex="1" parent="xoxZfrz6zfriWw-9RkuA-6">
                    <mxGeometry x="45" y="70" width="10" height="140" as="geometry"/>
                </mxCell>
                <mxCell id="xoxZfrz6zfriWw-9RkuA-8" value="" style="edgeStyle=elbowEdgeStyle;fontSize=12;html=1;endArrow=blockThin;endFill=1;entryX=1.02;entryY=0.676;entryDx=0;entryDy=0;entryPerimeter=0;rounded=0;" edge="1" parent="xoxZfrz6zfriWw-9RkuA-6">
                    <mxGeometry width="160" relative="1" as="geometry">
                        <mxPoint x="55" y="154.82999999999998" as="sourcePoint"/>
                        <mxPoint x="55.19999999999993" y="169.64" as="targetPoint"/>
                        <Array as="points">
                            <mxPoint x="70" y="165"/>
                        </Array>
                    </mxGeometry>
                </mxCell>
                <mxCell id="xoxZfrz6zfriWw-9RkuA-9" value="Klik tombol Promo" style="html=1;verticalAlign=bottom;startArrow=oval;startFill=1;endArrow=block;startSize=8;entryX=0.052;entryY=0.099;entryDx=0;entryDy=0;entryPerimeter=0;" edge="1" parent="1" target="xoxZfrz6zfriWw-9RkuA-3">
                    <mxGeometry x="-0.9991" y="10" width="60" relative="1" as="geometry">
                        <mxPoint x="170" y="300" as="sourcePoint"/>
                        <mxPoint x="230" y="300" as="targetPoint"/>
                        <mxPoint as="offset"/>
                    </mxGeometry>
                </mxCell>
                <mxCell id="xoxZfrz6zfriWw-9RkuA-10" value="" style="edgeStyle=elbowEdgeStyle;fontSize=12;html=1;endArrow=blockThin;endFill=1;exitX=0.967;exitY=0.25;exitDx=0;exitDy=0;exitPerimeter=0;entryX=-0.035;entryY=0.251;entryDx=0;entryDy=0;entryPerimeter=0;" edge="1" parent="1" source="xoxZfrz6zfriWw-9RkuA-3" target="xoxZfrz6zfriWw-9RkuA-5">
                    <mxGeometry width="160" relative="1" as="geometry">
                        <mxPoint x="310" y="330" as="sourcePoint"/>
                        <mxPoint x="430" y="330" as="targetPoint"/>
                    </mxGeometry>
                </mxCell>
                <mxCell id="xoxZfrz6zfriWw-9RkuA-11" value="Request data Promo" style="edgeLabel;html=1;align=center;verticalAlign=middle;resizable=0;points=[];" vertex="1" connectable="0" parent="xoxZfrz6zfriWw-9RkuA-10">
                    <mxGeometry x="-0.1156" relative="1" as="geometry">
                        <mxPoint y="-10" as="offset"/>
                    </mxGeometry>
                </mxCell>
                <mxCell id="xoxZfrz6zfriWw-9RkuA-12" value="" style="edgeStyle=elbowEdgeStyle;fontSize=12;html=1;endArrow=blockThin;endFill=1;exitX=1.021;exitY=0.351;exitDx=0;exitDy=0;exitPerimeter=0;entryX=-0.113;entryY=0.503;entryDx=0;entryDy=0;entryPerimeter=0;" edge="1" parent="1" source="xoxZfrz6zfriWw-9RkuA-5" target="xoxZfrz6zfriWw-9RkuA-7">
                    <mxGeometry width="160" relative="1" as="geometry">
                        <mxPoint x="450" y="350" as="sourcePoint"/>
                        <mxPoint x="630" y="350" as="targetPoint"/>
                    </mxGeometry>
                </mxCell>
                <mxCell id="xoxZfrz6zfriWw-9RkuA-13" value="Request data Promo" style="edgeLabel;html=1;align=center;verticalAlign=middle;resizable=0;points=[];" vertex="1" connectable="0" parent="xoxZfrz6zfriWw-9RkuA-12">
                    <mxGeometry x="-0.1156" relative="1" as="geometry">
                        <mxPoint y="-10" as="offset"/>
                    </mxGeometry>
                </mxCell>
                <mxCell id="xoxZfrz6zfriWw-9RkuA-14" value="return data" style="html=1;verticalAlign=bottom;endArrow=open;dashed=1;endSize=8;exitX=-0.113;exitY=0.865;exitDx=0;exitDy=0;exitPerimeter=0;entryX=0.967;entryY=0.604;entryDx=0;entryDy=0;entryPerimeter=0;" edge="1" parent="1" source="xoxZfrz6zfriWw-9RkuA-7" target="xoxZfrz6zfriWw-9RkuA-5">
                    <mxGeometry relative="1" as="geometry">
                        <mxPoint x="570" y="400" as="sourcePoint"/>
                        <mxPoint x="490" y="400" as="targetPoint"/>
                    </mxGeometry>
                </mxCell>
                <mxCell id="xoxZfrz6zfriWw-9RkuA-15" value="return response" style="html=1;verticalAlign=bottom;endArrow=open;dashed=1;endSize=8;exitX=-0.004;exitY=0.898;exitDx=0;exitDy=0;exitPerimeter=0;entryX=0.981;entryY=0.902;entryDx=0;entryDy=0;entryPerimeter=0;" edge="1" parent="1">
                    <mxGeometry relative="1" as="geometry">
                        <mxPoint x="434.96000000000004" y="430.5999999999999" as="sourcePoint"/>
                        <mxPoint x="244.80999999999995" y="431.4000000000001" as="targetPoint"/>
                    </mxGeometry>
                </mxCell>
            </root>
        </mxGraphModel>
    </diagram>
    <diagram id="gapqMs2xKgw2iXHAg3AO" name="Mengupdate Profile">
        <mxGraphModel dx="605" dy="461" grid="1" gridSize="10" guides="1" tooltips="1" connect="1" arrows="1" fold="1" page="1" pageScale="1" pageWidth="850" pageHeight="1100" math="0" shadow="0">
            <root>
                <mxCell id="0"/>
                <mxCell id="1" parent="0"/>
                <mxCell id="TkHQJlN9Berimnh0Xh8m-1" value="Update Profile" style="shape=umlFrame;whiteSpace=wrap;html=1;width=85;height=30;" vertex="1" parent="1">
                    <mxGeometry x="105" y="160" width="625" height="380" as="geometry"/>
                </mxCell>
                <mxCell id="TkHQJlN9Berimnh0Xh8m-2" value="Mobile" style="shape=umlLifeline;perimeter=lifelinePerimeter;whiteSpace=wrap;html=1;container=1;collapsible=0;recursiveResize=0;outlineConnect=0;" vertex="1" parent="1">
                    <mxGeometry x="190" y="210" width="100" height="300" as="geometry"/>
                </mxCell>
                <mxCell id="TkHQJlN9Berimnh0Xh8m-3" value="" style="html=1;points=[];perimeter=orthogonalPerimeter;" vertex="1" parent="TkHQJlN9Berimnh0Xh8m-2">
                    <mxGeometry x="45" y="70" width="10" height="200" as="geometry"/>
                </mxCell>
                <mxCell id="TkHQJlN9Berimnh0Xh8m-4" value="API" style="shape=umlLifeline;perimeter=lifelinePerimeter;whiteSpace=wrap;html=1;container=1;collapsible=0;recursiveResize=0;outlineConnect=0;" vertex="1" parent="1">
                    <mxGeometry x="390" y="210" width="100" height="300" as="geometry"/>
                </mxCell>
                <mxCell id="TkHQJlN9Berimnh0Xh8m-5" value="" style="html=1;points=[];perimeter=orthogonalPerimeter;" vertex="1" parent="TkHQJlN9Berimnh0Xh8m-4">
                    <mxGeometry x="45" y="70" width="10" height="200" as="geometry"/>
                </mxCell>
                <mxCell id="TkHQJlN9Berimnh0Xh8m-7" value="Database" style="shape=umlLifeline;perimeter=lifelinePerimeter;whiteSpace=wrap;html=1;container=1;collapsible=0;recursiveResize=0;outlineConnect=0;" vertex="1" parent="1">
                    <mxGeometry x="590" y="210" width="100" height="300" as="geometry"/>
                </mxCell>
                <mxCell id="TkHQJlN9Berimnh0Xh8m-8" value="" style="html=1;points=[];perimeter=orthogonalPerimeter;" vertex="1" parent="TkHQJlN9Berimnh0Xh8m-7">
                    <mxGeometry x="45" y="70" width="10" height="140" as="geometry"/>
                </mxCell>
                <mxCell id="TkHQJlN9Berimnh0Xh8m-9" value="" style="edgeStyle=elbowEdgeStyle;fontSize=12;html=1;endArrow=blockThin;endFill=1;entryX=1.02;entryY=0.676;entryDx=0;entryDy=0;entryPerimeter=0;rounded=0;" edge="1" parent="TkHQJlN9Berimnh0Xh8m-7">
                    <mxGeometry width="160" relative="1" as="geometry">
                        <mxPoint x="55" y="154.82999999999998" as="sourcePoint"/>
                        <mxPoint x="55.19999999999993" y="169.64" as="targetPoint"/>
                        <Array as="points">
                            <mxPoint x="70" y="165"/>
                        </Array>
                    </mxGeometry>
                </mxCell>
                <mxCell id="TkHQJlN9Berimnh0Xh8m-10" value="Klik tombol Update &lt;br&gt;Profile" style="html=1;verticalAlign=bottom;startArrow=oval;startFill=1;endArrow=block;startSize=8;entryX=0.052;entryY=0.099;entryDx=0;entryDy=0;entryPerimeter=0;" edge="1" parent="1" target="TkHQJlN9Berimnh0Xh8m-3">
                    <mxGeometry x="-0.9991" y="10" width="60" relative="1" as="geometry">
                        <mxPoint x="170" y="300" as="sourcePoint"/>
                        <mxPoint x="230" y="300" as="targetPoint"/>
                        <mxPoint as="offset"/>
                    </mxGeometry>
                </mxCell>
                <mxCell id="TkHQJlN9Berimnh0Xh8m-11" value="" style="edgeStyle=elbowEdgeStyle;fontSize=12;html=1;endArrow=blockThin;endFill=1;exitX=0.967;exitY=0.25;exitDx=0;exitDy=0;exitPerimeter=0;entryX=-0.035;entryY=0.251;entryDx=0;entryDy=0;entryPerimeter=0;" edge="1" parent="1" source="TkHQJlN9Berimnh0Xh8m-3" target="TkHQJlN9Berimnh0Xh8m-5">
                    <mxGeometry width="160" relative="1" as="geometry">
                        <mxPoint x="310" y="330" as="sourcePoint"/>
                        <mxPoint x="430" y="330" as="targetPoint"/>
                    </mxGeometry>
                </mxCell>
                <mxCell id="TkHQJlN9Berimnh0Xh8m-12" value="Mengirim data user" style="edgeLabel;html=1;align=center;verticalAlign=middle;resizable=0;points=[];" vertex="1" connectable="0" parent="TkHQJlN9Berimnh0Xh8m-11">
                    <mxGeometry x="-0.1156" relative="1" as="geometry">
                        <mxPoint y="-10" as="offset"/>
                    </mxGeometry>
                </mxCell>
                <mxCell id="TkHQJlN9Berimnh0Xh8m-13" value="" style="edgeStyle=elbowEdgeStyle;fontSize=12;html=1;endArrow=blockThin;endFill=1;exitX=1.021;exitY=0.351;exitDx=0;exitDy=0;exitPerimeter=0;entryX=-0.113;entryY=0.503;entryDx=0;entryDy=0;entryPerimeter=0;" edge="1" parent="1" source="TkHQJlN9Berimnh0Xh8m-5" target="TkHQJlN9Berimnh0Xh8m-8">
                    <mxGeometry width="160" relative="1" as="geometry">
                        <mxPoint x="450" y="350" as="sourcePoint"/>
                        <mxPoint x="630" y="350" as="targetPoint"/>
                    </mxGeometry>
                </mxCell>
                <mxCell id="TkHQJlN9Berimnh0Xh8m-14" value="Input data user" style="edgeLabel;html=1;align=center;verticalAlign=middle;resizable=0;points=[];" vertex="1" connectable="0" parent="TkHQJlN9Berimnh0Xh8m-13">
                    <mxGeometry x="-0.1156" relative="1" as="geometry">
                        <mxPoint y="-10" as="offset"/>
                    </mxGeometry>
                </mxCell>
                <mxCell id="TkHQJlN9Berimnh0Xh8m-15" value="return data" style="html=1;verticalAlign=bottom;endArrow=open;dashed=1;endSize=8;exitX=-0.113;exitY=0.865;exitDx=0;exitDy=0;exitPerimeter=0;entryX=0.967;entryY=0.604;entryDx=0;entryDy=0;entryPerimeter=0;" edge="1" parent="1" source="TkHQJlN9Berimnh0Xh8m-8" target="TkHQJlN9Berimnh0Xh8m-5">
                    <mxGeometry relative="1" as="geometry">
                        <mxPoint x="570" y="400" as="sourcePoint"/>
                        <mxPoint x="490" y="400" as="targetPoint"/>
                    </mxGeometry>
                </mxCell>
                <mxCell id="TkHQJlN9Berimnh0Xh8m-16" value="return response" style="html=1;verticalAlign=bottom;endArrow=open;dashed=1;endSize=8;exitX=-0.004;exitY=0.898;exitDx=0;exitDy=0;exitPerimeter=0;entryX=0.981;entryY=0.902;entryDx=0;entryDy=0;entryPerimeter=0;" edge="1" parent="1">
                    <mxGeometry relative="1" as="geometry">
                        <mxPoint x="434.96000000000004" y="437.6" as="sourcePoint"/>
                        <mxPoint x="244.81000000000006" y="438.4" as="targetPoint"/>
                    </mxGeometry>
                </mxCell>
            </root>
        </mxGraphModel>
    </diagram>
</mxfile>